<svg height="2078" width="720" xmlns="http://www.w3.org/2000/svg">
<rect height="2078" fill="#555" width="720"></rect>
<text fill="#7f7" font-family="Courier New" font-size="12" xml:space="preserve">
<tspan x="10" y="26"></tspan>
<tspan x="10" y="42">&gt; npmdoc-grunt-eslint@0.0.2 test /home/travis/build/npmdoc/node-npmdoc-grunt-eslint</tspan>
<tspan x="10" y="58">&gt; (set -e; export PORT=$(utility2 shServerPortRandom); utility2 test test.js)</tspan>
<tspan x="10" y="74"></tspan>
<tspan x="10" y="90"></tspan>
<tspan x="10" y="106">[MODE_BUILD=npmTest] - 2017-04-08T09:44:21Z - npm-testing /home/travis/build/npmdoc/node-npmdoc-\</tspan>
<tspan x="10" y="122">grunt-eslint</tspan>
<tspan x="10" y="138"></tspan>
<tspan x="10" y="154"></tspan>
<tspan x="10" y="170">covering $ /home/travis/.nvm/versions/node/v6.10.2/bin/node /home/travis/build/npmdoc/node-npmdo\</tspan>
<tspan x="10" y="186">c-grunt-eslint/test.js</tspan>
<tspan x="10" y="202">merging file:///home/travis/build/npmdoc/node-npmdoc-grunt-eslint/tmp/build/test-report.json to \</tspan>
<tspan x="10" y="218">test-report</tspan>
<tspan x="10" y="234">&gt; server listening on http-port 46765</tspan>
<tspan x="10" y="250">created apidoc file:///home/travis/build/npmdoc/node-npmdoc-grunt-eslint/tmp/build/apidoc.html</tspan>
<tspan x="10" y="266"></tspan>
<tspan x="10" y="282"></tspan>
<tspan x="10" y="298">browserTest - created electron entry-page /home/travis/build/npmdoc/node-npmdoc-grunt-eslint/tmp\</tspan>
<tspan x="10" y="314">/electron.15b4cf343450.19320e3776b7e.html</tspan>
<tspan x="10" y="330"></tspan>
<tspan x="10" y="346">[node test-case 1 of 6 passed] - testCase_buildLib_default</tspan>
<tspan x="10" y="362">[node test-case 2 of 6 passed] - testCase_buildReadme_default</tspan>
<tspan x="10" y="378">[node test-case 3 of 6 passed] - testCase_buildTest_default</tspan>
<tspan x="10" y="394"></tspan>
<tspan x="10" y="410">browserTest - created electron entry-page /home/travis/build/npmdoc/node-npmdoc-grunt-eslint/tmp\</tspan>
<tspan x="10" y="426">/electron.15b4cf343750.12c6251ff4424.html</tspan>
<tspan x="10" y="442"></tspan>
<tspan x="10" y="458">Xlib:  extension "RANDR" missing on display ":99.0".</tspan>
<tspan x="10" y="474">Xlib:  extension "RANDR" missing on display ":99.0".</tspan>
<tspan x="10" y="490">&gt; server listening on http-port 42047</tspan>
<tspan x="10" y="506">merging file:///home/travis/build/npmdoc/node-npmdoc-grunt-eslint/tmp/build/test-report.json to \</tspan>
<tspan x="10" y="522">test-report</tspan>
<tspan x="10" y="538">Xlib:  extension "RANDR" missing on display ":99.0".</tspan>
<tspan x="10" y="554">[5675:0408/094423:WARNING:audio_manager.cc(314)] Multiple instances of AudioManager detected</tspan>
<tspan x="10" y="570">[5675:0408/094423:WARNING:audio_manager.cc(275)] Multiple instances of AudioManager detected</tspan>
<tspan x="10" y="586">merging file:///home/travis/build/npmdoc/node-npmdoc-grunt-eslint/tmp/build/test-report.json to \</tspan>
<tspan x="10" y="602">test-report</tspan>
<tspan x="10" y="618">[5714:0408/094423:ERROR:sandbox_linux.cc(343)] InitializeSandbox() called with multiple threads \</tspan>
<tspan x="10" y="634">in process gpu-process. </tspan>
<tspan x="10" y="650">Xlib:  extension "RANDR" missing on display ":99.0".</tspan>
<tspan x="10" y="666">[5675:0408/094423:ERROR:browser_gpu_channel_host_factory.cc(131)] Failed to create channel.</tspan>
<tspan x="10" y="682">[5678:0408/094423:WARNING:audio_manager.cc(314)] Multiple instances of AudioManager detected</tspan>
<tspan x="10" y="698">[5678:0408/094423:WARNING:audio_manager.cc(275)] Multiple instances of AudioManager detected</tspan>
<tspan x="10" y="714">[5737:0408/094423:ERROR:sandbox_linux.cc(343)] InitializeSandbox() called with multiple threads \</tspan>
<tspan x="10" y="730">in process gpu-process. </tspan>
<tspan x="10" y="746"></tspan>
<tspan x="10" y="762">browserTest - opened url http://127.0.0.1:46765?modeTest=1</tspan>
<tspan x="10" y="778"></tspan>
<tspan x="10" y="794"></tspan>
<tspan x="10" y="810">browserTest - opened url /home/travis/build/npmdoc/node-npmdoc-grunt-eslint/tmp/build/apidoc.htm\</tspan>
<tspan x="10" y="826">l</tspan>
<tspan x="10" y="842"></tspan>
<tspan x="10" y="858">[5675:0408/094425:INFO:CONSOLE(248)] "----------|-----------|-----------|-----------|-----------\</tspan>
<tspan x="10" y="874">|</tspan>
<tspan x="10" y="890">File      |   % Stmts |% Branches |   % Funcs |   % Lines |</tspan>
<tspan x="10" y="906">----------|-----------|-----------|-----------|-----------|</tspan>
<tspan x="10" y="922">----------|-----------|-----------|-----------|-----------|</tspan>
<tspan x="10" y="938">All files |       100 |       100 |       100 |       100 |</tspan>
<tspan x="10" y="954">----------|-----------|-----------|-----------|-----------|</tspan>
<tspan x="10" y="970">", source: file:///home/travis/build/npmdoc/node-npmdoc-grunt-eslint/tmp/electron.15b4cf343750.1\</tspan>
<tspan x="10" y="986">2c6251ff4424.html (248)</tspan>
<tspan x="10" y="1002">[5675:0408/094425:INFO:CONSOLE(248)] "created coverage file:///tmp/build/coverage.html/index.htm\</tspan>
<tspan x="10" y="1018">l", source: file:///home/travis/build/npmdoc/node-npmdoc-grunt-eslint/tmp/electron.15b4cf343750.\</tspan>
<tspan x="10" y="1034">12c6251ff4424.html (248)</tspan>
<tspan x="10" y="1050">[node test-case 4 of 6 passed] - testCase_buildApp_default</tspan>
<tspan x="10" y="1066"></tspan>
<tspan x="10" y="1082">browserTest - created screenCapture file:///home/travis/build/npmdoc/node-npmdoc-grunt-eslint/tm\</tspan>
<tspan x="10" y="1098">p/build/screenCapture.npmTest.browser.%2F.png</tspan>
<tspan x="10" y="1114"></tspan>
<tspan x="10" y="1130"></tspan>
<tspan x="10" y="1146">browserTest - created screenCapture file:///home/travis/build/npmdoc/node-npmdoc-grunt-eslint/tm\</tspan>
<tspan x="10" y="1162">p/build/screenCapture.npmTest.browser.%2Fhome%2Ftravis%2Fbuild%2Fnpmdoc%2Fnode-npmdoc-grunt-esli\</tspan>
<tspan x="10" y="1178">nt%2Ftmp%2Fbuild%2Fapidoc.html.png</tspan>
<tspan x="10" y="1194"></tspan>
<tspan x="10" y="1210">browserTest - created screenCapture file:///home/travis/build/npmdoc/node-npmdoc-grunt-eslint/tm\</tspan>
<tspan x="10" y="1226">p/build/screenCapture.npmTest.browser.%2F.html</tspan>
<tspan x="10" y="1242"></tspan>
<tspan x="10" y="1258">browserTest - exit-code 0 - http://127.0.0.1:46765?modeTest=1</tspan>
<tspan x="10" y="1274"></tspan>
<tspan x="10" y="1290"></tspan>
<tspan x="10" y="1306">browserTest - merged coverage from /home/travis/build/npmdoc/node-npmdoc-grunt-eslint/tmp/covera\</tspan>
<tspan x="10" y="1322">ge.npmTest.browser.%2F.json</tspan>
<tspan x="10" y="1338"></tspan>
<tspan x="10" y="1354"></tspan>
<tspan x="10" y="1370">browserTest - merging test-report from /home/travis/build/npmdoc/node-npmdoc-grunt-eslint/tmp/te\</tspan>
<tspan x="10" y="1386">st-report.npmTest.browser.%2F.json</tspan>
<tspan x="10" y="1402"></tspan>
<tspan x="10" y="1418">[node test-case 5 of 6 passed] - testCase_webpage_default</tspan>
<tspan x="10" y="1434">browserTest - created screenCapture file:///home/travis/build/npmdoc/node-npmdoc-grunt-eslint/tm\</tspan>
<tspan x="10" y="1450">p/build/screenCapture.npmTest.browser.%2Fhome%2Ftravis%2Fbuild%2Fnpmdoc%2Fnode-npmdoc-grunt-esli\</tspan>
<tspan x="10" y="1466">nt%2Ftmp%2Fbuild%2Fapidoc.html.html</tspan>
<tspan x="10" y="1482"></tspan>
<tspan x="10" y="1498">browserTest - exit-code 0 - /home/travis/build/npmdoc/node-npmdoc-grunt-eslint/tmp/build/apidoc.\</tspan>
<tspan x="10" y="1514">html</tspan>
<tspan x="10" y="1530"></tspan>
<tspan x="10" y="1546">[node test-case 6 of 6 passed] - testCase_buildApidoc_default</tspan>
<tspan x="10" y="1562">---------------------------------|-----------|-----------|-----------|-----------|</tspan>
<tspan x="10" y="1578">File                             |   % Stmts |% Branches |   % Funcs |   % Lines |</tspan>
<tspan x="10" y="1594">---------------------------------|-----------|-----------|-----------|-----------|</tspan>
<tspan x="10" y="1610">   node-npmdoc-grunt-eslint/     |       100 |       100 |       100 |       100 |</tspan>
<tspan x="10" y="1626">      example.js                 |       100 |       100 |       100 |       100 |</tspan>
<tspan x="10" y="1642">      lib.npmdoc_grunt_eslint.js |       100 |       100 |       100 |       100 |</tspan>
<tspan x="10" y="1658">      test.js                    |       100 |       100 |       100 |       100 |</tspan>
<tspan x="10" y="1674">---------------------------------|-----------|-----------|-----------|-----------|</tspan>
<tspan x="10" y="1690">All files                        |       100 |       100 |       100 |       100 |</tspan>
<tspan x="10" y="1706">---------------------------------|-----------|-----------|-----------|-----------|</tspan>
<tspan x="10" y="1722"></tspan>
<tspan x="10" y="1738">created coverage file:///home/travis/build/npmdoc/node-npmdoc-grunt-eslint/tmp/build/coverage.ht\</tspan>
<tspan x="10" y="1754">ml/index.html</tspan>
<tspan x="10" y="1770">merging file:///home/travis/build/npmdoc/node-npmdoc-grunt-eslint/tmp/build/test-report.json to \</tspan>
<tspan x="10" y="1786">test-report</tspan>
<tspan x="10" y="1802"></tspan>
<tspan x="10" y="1818">-------------------------------------------------------</tspan>
<tspan x="10" y="1834">| test-report - npmTest - node - linux v6.10.2 - 2017-04-08T09:44:21.889Z</tspan>
<tspan x="10" y="1850">|   16959 ms            0 failed        6 passed      |</tspan>
<tspan x="10" y="1866">-------------------------------------------------------</tspan>
<tspan x="10" y="1882">| test-report - npmdoc - node - linux v6.10.2 - 2017-04-08T09:43:44.332Z</tspan>
<tspan x="10" y="1898">|   16169 ms            0 failed        1 passed      |</tspan>
<tspan x="10" y="1914">-------------------------------------------------------</tspan>
<tspan x="10" y="1930"></tspan>
<tspan x="10" y="1946">created test-report file:///home/travis/build/npmdoc/node-npmdoc-grunt-eslint/tmp/build/test-rep\</tspan>
<tspan x="10" y="1962">ort.html</tspan>
<tspan x="10" y="1978"></tspan>
<tspan x="10" y="1994"></tspan>
<tspan x="10" y="2010">npmTest - 0 failed tests</tspan>
<tspan x="10" y="2026"></tspan>
<tspan x="10" y="2042"></tspan>
<tspan x="10" y="2058">[MODE_BUILD=npmTest] - 2017-04-08T09:44:40Z - EXIT_CODE - 0</tspan>
</text>
</svg>
